<?xml version="1.0" encoding="utf-8"?>
<!-- Generator: Adobe Illustrator 24.0.0, SVG Export Plug-In . SVG Version: 6.00 Build 0)  -->
<svg version="1.1" id="Layer_1" xmlns="http://www.w3.org/2000/svg" xmlns:xlink="http://www.w3.org/1999/xlink" x="0px" y="0px"
	 viewBox="0 0 1280 688" style="enable-background:new 0 0 1280 688;" xml:space="preserve">
<style type="text/css">
	.st0{fill:none;}
	.st1{font-family:'Roboto-Black';}
	.st2{font-size:66.4297px;}
	.st3{fill:#FF9A20;stroke:#000000;stroke-width:12.7246;stroke-linecap:round;stroke-linejoin:round;stroke-miterlimit:10;}
	.st4{fill:#333333;}
	.st5{fill:#00D9FF;stroke:#000000;stroke-width:9.49;stroke-linejoin:round;stroke-miterlimit:10;}
	.st6{fill:none;stroke:#000000;stroke-width:9.49;stroke-linejoin:round;stroke-miterlimit:10;}
	.st7{fill:#4D4D4D;stroke:#000000;stroke-width:6.3266;stroke-linejoin:round;stroke-miterlimit:10;}
	.st8{fill:#4D4D4D;stroke:#000000;stroke-width:9.49;stroke-linejoin:round;stroke-miterlimit:10;}
	.st9{fill:#FFFFFF;}
	.st10{font-size:120.2061px;}
</style>
<g>
	<rect x="30.74" y="556.55" class="st0" width="1198.58" height="95.34"/>
	<text transform="matrix(1 0 0 1 172.8779 606.375)" class="st1 st2">Bus Riders Union - Saint Louis</text>
	<path class="st3" d="M82.2,195.01c0,66.34,0,300.42,0,300.42h172.75v-37.96l35.19-34.8h70.38l33.59,33.21v39.54h427.07v-41.12
		l31.99-31.63h73.58l30.39,30.05l3.2,42.7h212.74l41.59-25.31c0,0,0-116.71,0-233.92s0-117.21-126.16-117.21c0,0-890.95,0-930.26,0
		C82.2,119,82.2,119,82.2,195.01z"/>
	<g>
		
			<ellipse transform="matrix(0.9951 -0.0985 0.0985 0.9951 -47.4051 34.2086)" class="st4" cx="322.61" cy="497.02" rx="39.54" ry="39.54"/>
		<path d="M322.61,468.55c15.7,0,28.47,12.77,28.47,28.47c0,15.7-12.77,28.47-28.47,28.47s-28.47-12.77-28.47-28.47
			C294.14,481.32,306.91,468.55,322.61,468.55 M322.61,446.4c-27.95,0-50.61,22.66-50.61,50.61c0,27.95,22.66,50.61,50.61,50.61
			s50.61-22.66,50.61-50.61C373.23,469.06,350.57,446.4,322.61,446.4L322.61,446.4z"/>
	</g>
	<g>
		<path class="st4" d="M888.85,531.81c-21.8,0-39.54-17.74-39.54-39.54s17.74-39.54,39.54-39.54c21.8,0,39.54,17.74,39.54,39.54
			S910.65,531.81,888.85,531.81z"/>
		<path d="M888.85,463.8c15.7,0,28.47,12.77,28.47,28.47s-12.77,28.47-28.47,28.47s-28.47-12.77-28.47-28.47
			S873.15,463.8,888.85,463.8 M888.85,441.66c-27.95,0-50.61,22.66-50.61,50.61c0,27.95,22.66,50.61,50.61,50.61
			c27.95,0,50.61-22.66,50.61-50.61C939.46,464.32,916.8,441.66,888.85,441.66L888.85,441.66z"/>
	</g>
	<polyline class="st5" points="1208.34,189.12 1149.82,189.12 1149.82,345.18 1208.34,345.18 	"/>
	<rect x="986.91" y="191.76" class="st6" width="132.86" height="303.68"/>
	<rect x="1009.05" y="356.25" class="st5" width="33.55" height="120.21"/>
	<rect x="1060.91" y="356.25" class="st5" width="33.55" height="120.21"/>
	<rect x="1010.73" y="217.38" class="st5" width="33.55" height="120.21"/>
	<rect x="1062.58" y="217.38" class="st5" width="33.55" height="120.21"/>
	<rect x="740.17" y="208.36" class="st5" width="208.78" height="139.19"/>
	<line class="st7" x1="742.4" y1="260.63" x2="948.38" y2="260.63"/>
	<rect x="507.43" y="208.36" class="st5" width="208.78" height="139.19"/>
	<line class="st7" x1="509.66" y1="262.2" x2="715.64" y2="262.2"/>
	<rect x="275.84" y="209.14" class="st5" width="208.78" height="139.19"/>
	<line class="st7" x1="278.06" y1="261.42" x2="484.05" y2="261.42"/>
	<rect x="82.2" y="209.14" class="st5" width="169.67" height="139.19"/>
	<line class="st7" x1="84.01" y1="262.98" x2="251.41" y2="262.98"/>
	<line class="st8" x1="106.19" y1="410.03" x2="199.24" y2="410.03"/>
	<line class="st8" x1="106.19" y1="426.9" x2="199.24" y2="426.9"/>
	<line class="st7" x1="382.72" y1="443.77" x2="828.74" y2="443.77"/>
	<polyline class="st7" points="79.72,443.77 106.19,443.77 199.24,443.77 268.64,443.77 	"/>
	<line class="st8" x1="106.19" y1="460.64" x2="199.24" y2="460.64"/>
	<rect x="126.95" y="229.96" class="st0" width="102" height="91.81"/>
	<text transform="matrix(1 0 0 1 126.9492 320.1123)" class="st9 st1 st10">B </text>
	<rect x="340.99" y="229.96" class="st0" width="111.32" height="91.81"/>
	<text transform="matrix(1 0 0 1 340.9932 320.1123)" class="st9 st1 st10">R</text>
	<rect x="565.59" y="229.96" class="st0" width="90.41" height="91.81"/>
	<text transform="matrix(1 0 0 1 565.5898 320.1123)" class="st9 st1 st10">U </text>
	<g>
		<path class="st9" d="M790.9,278.23c0.58-2.47,0.16-4.6-1.27-6.39c-1.43-1.79-4.16-3.94-8.21-6.45c-4.05-2.51-7.31-4.78-9.77-6.81
			c-8.03-6.59-11.13-13.79-9.3-21.58c0.91-3.88,2.85-7.04,5.81-9.48c2.96-2.43,6.7-3.99,11.23-4.67c4.53-0.68,9.37-0.41,14.54,0.8
			c5.03,1.18,9.34,3.14,12.91,5.88c3.57,2.74,6.07,6.02,7.51,9.86c1.43,3.84,1.65,7.9,0.65,12.16l-16.84-3.96
			c0.67-2.85,0.32-5.27-1.06-7.26c-1.38-1.98-3.56-3.32-6.54-4.03c-3.02-0.71-5.55-0.6-7.61,0.32c-2.06,0.92-3.33,2.41-3.82,4.46
			c-0.42,1.8,0.16,3.65,1.74,5.56c1.58,1.91,4.61,4.22,9.09,6.91c4.48,2.7,8.06,5.31,10.75,7.83c6.54,6.14,8.92,13.05,7.12,20.71
			c-1.44,6.13-4.88,10.4-10.32,12.81c-5.44,2.41-12.19,2.67-20.24,0.78c-5.68-1.33-10.58-3.56-14.7-6.68
			c-4.13-3.12-6.93-6.72-8.43-10.81c-1.5-4.09-1.7-8.45-0.61-13.07l16.94,3.98c-0.88,3.75-0.56,6.75,0.96,8.98
			c1.52,2.24,4.46,3.87,8.83,4.89c2.79,0.66,5.14,0.57,7.04-0.25C789.18,281.92,790.39,280.42,790.9,278.23z"/>
		<path class="st9" d="M880.47,258.76l-21.03-4.94l-13.4,57.02l-16.89-3.97l13.4-57.02L821.92,245l3.06-13.04l58.56,13.76
			L880.47,258.76z"/>
		<path class="st9" d="M894.14,308.43l29.4,6.91l-3.05,12.99l-46.29-10.88l16.46-70.06l16.89,3.97L894.14,308.43z"/>
	</g>
</g>
</svg>
